<svg xmlns="http://www.w3.org/2000/svg" fill="none" width="32px" height="32px" viewBox="24.44 84.68 190.98 58.57">
  <path
    d="M142.406 84.6768H186.692L193.91 99.3384H160.677L162.932 104H196.165L215.413 143.173H171.278L164.06 128.511H197.068L192.331 118.812H159.248L142.406 84.6768Z"
    fill="url(#paint0_linear_2095_722)" />
  <path
    d="M69.1732 84.7516H51.2785L24.4364 143.248H70.6018L64.662 129.714H49.2484L60.677 105.729L77.5943 143.248L86.5417 123.248L69.1732 84.7516Z"
    fill="url(#paint1_linear_2095_722)" />
  <path
    d="M141.128 84.7516H123.233L96.3908 143.248H142.556L136.616 129.714H121.203L132.631 105.729L149.549 143.248H169.925L141.128 84.7516Z"
    fill="url(#paint2_linear_2095_722)" />
  <path d="M81.7288 98.2854L75.7889 84.7516H121.578L95.0371 143.248H77.2927L97.4431 98.2102H81.7288V98.2854Z"
    fill="url(#paint3_linear_2095_722)" />
  <defs>
    <linearGradient id="paint0_linear_2095_722" x1="142.406" y1="113.925" x2="206.12" y2="113.925"
      gradientUnits="userSpaceOnUse">
      <stop stop-color="#FEE86A" />
      <stop offset="0.13" stop-color="#EFBD1D" />
      <stop offset="0.35" stop-color="#E9B71A" />
      <stop offset="0.5" stop-color="#F8E167" />
      <stop offset="0.67" stop-color="#FFF17C" />
      <stop offset="0.69" stop-color="#FFEF77" />
      <stop offset="0.79" stop-color="#FDDF55" />
      <stop offset="0.85" stop-color="#FDD948" />
    </linearGradient>
    <linearGradient id="paint1_linear_2095_722" x1="24.4364" y1="114" x2="86.5417" y2="114"
      gradientUnits="userSpaceOnUse">
      <stop stop-color="#AD0000" />
      <stop offset="0.32" stop-color="#C10800" />
      <stop offset="0.79" stop-color="#CE2D0E" />
      <stop offset="1" stop-color="#D10000" />
    </linearGradient>
    <linearGradient id="paint2_linear_2095_722" x1="96.3908" y1="224.376" x2="169.925" y2="224.376"
      gradientUnits="userSpaceOnUse">
      <stop stop-color="#AD0000" />
      <stop offset="0.32" stop-color="#C10800" />
      <stop offset="0.79" stop-color="#CE2D0E" />
      <stop offset="1" stop-color="#D10000" />
    </linearGradient>
    <linearGradient id="paint3_linear_2095_722" x1="75.7889" y1="114" x2="121.578" y2="114"
      gradientUnits="userSpaceOnUse">
      <stop stop-color="#FEE86A" />
      <stop offset="0.13" stop-color="#EFBD1D" />
      <stop offset="0.35" stop-color="#E9B71A" />
      <stop offset="0.53" stop-color="#F8E167" />
      <stop offset="0.75" stop-color="#FFF17C" />
      <stop offset="0.77" stop-color="#FFEF77" />
      <stop offset="0.92" stop-color="#FDDF55" />
      <stop offset="1" stop-color="#FDD948" />
    </linearGradient>
  </defs>
</svg>